<svg width="115" height="50" viewBox="0 0 115 50" fill="none" xmlns="http://www.w3.org/2000/svg">
<g clip-path="url(#clip0_103_89)">
<rect width="115" height="50" fill="#FF7A00"/>
<path d="M23.32 23.34L23.64 25.08H18.98V31H16.76V17.4H24.26L24.6 19.16H18.98V23.34H23.32ZM28.4 31H26.16V21.3H27.36L28.1 22.9C28.3667 22.6733 28.6867 22.44 29.06 22.2C29.4333 21.9467 29.82 21.7333 30.22 21.56C30.6333 21.3867 31.0133 21.3 31.36 21.3L31.84 23.1C31.52 23.1 31.1533 23.18 30.74 23.34C30.34 23.5 29.9333 23.7067 29.52 23.96C29.12 24.2133 28.7467 24.5 28.4 24.82V31ZM41.6713 26.74H34.9513C35.0179 27.26 35.1579 27.7133 35.3713 28.1C35.5979 28.4867 35.9246 28.7933 36.3513 29.02C36.7913 29.2333 37.3579 29.34 38.0513 29.34C38.6113 29.34 39.1046 29.26 39.5313 29.1C39.9713 28.94 40.4313 28.7333 40.9113 28.48L41.5913 30.12C41.2846 30.32 40.9513 30.5133 40.5913 30.7C40.2313 30.8733 39.8379 31.0067 39.4113 31.1C38.9846 31.1933 38.5179 31.24 38.0113 31.24C36.8246 31.24 35.8246 31.0333 35.0113 30.62C34.1979 30.1933 33.5913 29.6 33.1913 28.84C32.7913 28.0667 32.5913 27.1733 32.5913 26.16C32.5913 25.1333 32.7779 24.24 33.1513 23.48C33.5379 22.7067 34.0846 22.1067 34.7913 21.68C35.5113 21.2533 36.3646 21.04 37.3513 21.04C38.3513 21.04 39.1713 21.28 39.8113 21.76C40.4513 22.24 40.9179 22.8733 41.2113 23.66C41.5179 24.4467 41.6713 25.3133 41.6713 26.26V26.74ZM34.9913 25.22H39.5113C39.4313 24.74 39.2913 24.3333 39.0913 24C38.9046 23.6667 38.6579 23.4133 38.3513 23.24C38.0579 23.0533 37.6979 22.96 37.2713 22.96C36.8579 22.96 36.4846 23.0533 36.1513 23.24C35.8313 23.4133 35.5713 23.6667 35.3713 24C35.1846 24.3333 35.0579 24.74 34.9913 25.22ZM45.607 31H43.367V21.3H44.867L45.267 22.46C45.6404 22.1533 46.0337 21.8933 46.447 21.68C46.8737 21.4533 47.307 21.28 47.747 21.16C48.187 21.04 48.6004 20.98 48.987 20.98C49.787 20.98 50.4204 21.1467 50.887 21.48C51.3537 21.8133 51.687 22.2667 51.887 22.84C52.1004 23.4 52.207 24.04 52.207 24.76V31H49.947V24.9C49.947 24.26 49.827 23.76 49.587 23.4C49.3604 23.04 48.9804 22.86 48.447 22.86C48.127 22.86 47.7937 22.9267 47.447 23.06C47.1137 23.1933 46.7937 23.3667 46.487 23.58C46.1804 23.7933 45.887 24.0067 45.607 24.22V31ZM61.5013 21.3L61.6213 22.56L56.4013 29.2H61.5213L61.7213 31H53.8813L53.6013 29.82L58.7213 23.14H54.3813L53.9213 21.3H61.5013ZM65.6308 31H63.4108V17.1L65.6308 16.88V31ZM69.8522 28.14C69.8522 28.3667 69.9055 28.58 70.0122 28.78C70.1322 28.98 70.2989 29.1467 70.5122 29.28C70.7255 29.4 70.9789 29.46 71.2722 29.46C71.6989 29.46 72.1122 29.36 72.5122 29.16C72.9122 28.96 73.2855 28.6867 73.6322 28.34V26.6H71.4522C70.9455 26.6 70.5522 26.76 70.2722 27.08C69.9922 27.4 69.8522 27.7533 69.8522 28.14ZM69.0322 23.74L68.4322 21.9C68.6855 21.7267 69.0255 21.58 69.4522 21.46C69.8789 21.3267 70.3122 21.2267 70.7522 21.16C71.1922 21.08 71.5455 21.04 71.8122 21.04C72.5722 21.04 73.2589 21.1933 73.8722 21.5C74.4855 21.7933 74.9722 22.2067 75.3322 22.74C75.7055 23.2733 75.8922 23.8667 75.8922 24.52V31H74.3722L74.0322 30.02C73.6855 30.3533 73.2722 30.64 72.7922 30.88C72.3122 31.12 71.8189 31.24 71.3122 31.24C70.1522 31.24 69.2922 30.9533 68.7322 30.38C68.1722 29.8067 67.8922 29.06 67.8922 28.14C67.8922 27.1667 68.2255 26.42 68.8922 25.9C69.5589 25.38 70.4255 25.1133 71.4922 25.1H73.6122V25.04C73.5989 24.4667 73.4589 24 73.1922 23.64C72.9255 23.2667 72.4789 23.08 71.8522 23.08C71.3455 23.08 70.8389 23.1533 70.3322 23.3C69.8389 23.4333 69.4055 23.58 69.0322 23.74ZM80.3531 31H78.1131V21.3H79.6131L80.0131 22.46C80.3865 22.1533 80.7798 21.8933 81.1931 21.68C81.6198 21.4533 82.0531 21.28 82.4931 21.16C82.9331 21.04 83.3465 20.98 83.7331 20.98C84.5331 20.98 85.1665 21.1467 85.6331 21.48C86.0998 21.8133 86.4331 22.2667 86.6331 22.84C86.8465 23.4 86.9531 24.04 86.9531 24.76V31H84.6931V24.9C84.6931 24.26 84.5731 23.76 84.3331 23.4C84.1065 23.04 83.7265 22.86 83.1931 22.86C82.8731 22.86 82.5398 22.9267 82.1931 23.06C81.8598 23.1933 81.5398 23.3667 81.2331 23.58C80.9265 23.7933 80.6331 24.0067 80.3531 24.22V31ZM95.5673 29.26V17.1L97.8273 16.9V31H96.6073L95.5673 29.26ZM96.1273 27.96L96.8073 29.48C96.514 29.8533 96.174 30.1733 95.7873 30.44C95.4007 30.7067 95.0007 30.9067 94.5873 31.04C94.1873 31.1867 93.8007 31.26 93.4273 31.26C92.4273 31.26 91.5607 31.0467 90.8273 30.62C90.1073 30.1933 89.554 29.6 89.1673 28.84C88.7807 28.0667 88.5873 27.16 88.5873 26.12C88.5873 25.1067 88.7807 24.22 89.1673 23.46C89.5673 22.7 90.134 22.1067 90.8673 21.68C91.6007 21.2533 92.4673 21.04 93.4673 21.04C93.814 21.04 94.2007 21.1133 94.6273 21.26C95.054 21.3933 95.4607 21.5933 95.8473 21.86C96.2473 22.1267 96.574 22.4467 96.8273 22.82L96.1673 24.36C95.7273 23.8533 95.294 23.4933 94.8673 23.28C94.454 23.0667 93.994 22.96 93.4873 22.96C92.9407 22.96 92.4673 23.1 92.0673 23.38C91.6807 23.66 91.3873 24.04 91.1873 24.52C90.9873 24.9867 90.8873 25.52 90.8873 26.12C90.8873 26.7467 90.9873 27.3 91.1873 27.78C91.3873 28.26 91.6807 28.64 92.0673 28.92C92.4673 29.1867 92.934 29.32 93.4673 29.32C93.9873 29.32 94.4473 29.2067 94.8473 28.98C95.2607 28.7533 95.6873 28.4133 96.1273 27.96Z" fill="white"/>
</g>
<defs>
<clipPath id="clip0_103_89">
<rect width="115" height="50" rx="4" fill="white"/>
</clipPath>
</defs>
</svg>
